<?xml version="1.0" encoding="UTF-8" standalone="no"?>
<svg xmlns:dc="http://purl.org/dc/elements/1.1/" xmlns:cc="http://creativecommons.org/ns#" xmlns:rdf="http://www.w3.org/1999/02/22-rdf-syntax-ns#" xmlns:svg="http://www.w3.org/2000/svg" xmlns="http://www.w3.org/2000/svg" xmlns:xlink="http://www.w3.org/1999/xlink" xmlns:sodipodi="http://sodipodi.sourceforge.net/DTD/sodipodi-0.dtd" xmlns:inkscape="http://www.inkscape.org/namespaces/inkscape" version="1.1" id="Layer_1" x="0px" y="0px" width="3000px" height="3000px" viewBox="0 0 3000 3000" enable-background="new 0 0 3000 3000" xml:space="preserve" sodipodi:docname="Dynamo_Theory_-_Outer_core_convection_and_magnetic_field_geenration.svg" inkscape:version="1.0.2 (e86c870879, 2021-01-15)"><sodipodi:namedview pagecolor="#ffffff" bordercolor="#666666" borderopacity="1" objecttolerance="10" gridtolerance="10" guidetolerance="10" inkscape:pageopacity="0" inkscape:pageshadow="2" inkscape:window-width="1920" inkscape:window-height="1019" id="namedview180" showgrid="false" inkscape:zoom="0.28366667" inkscape:cx="1500" inkscape:cy="1500" inkscape:window-x="0" inkscape:window-y="0" inkscape:window-maximized="1" inkscape:current-layer="Layer_1" inkscape:document-rotation="0"/><metadata id="metadata473"><rdf:RDF><cc:Work rdf:about=""><dc:format>image/svg+xml</dc:format><dc:type rdf:resource="http://purl.org/dc/dcmitype/StillImage"/><dc:title/></cc:Work></rdf:RDF></metadata><defs id="defs471"><linearGradient id="linearGradient1306"><stop style="stop-color:#000000;stop-opacity:1;" offset="0" id="stop1302"/><stop style="stop-color:#000000;stop-opacity:0;" offset="1" id="stop1304"/></linearGradient><linearGradient xlink:href="#linearGradient1306" id="linearGradient1308" x1="95.365623" y1="292.42691" x2="473.89687" y2="292.42691" gradientUnits="userSpaceOnUse" gradientTransform="translate(-7.8830024,9.4672628)"/></defs>
<radialGradient id="SVGID_1_" cx="1500" cy="1500" r="1070.1113" gradientUnits="userSpaceOnUse">
	<stop offset="0" style="stop-color:#E92D00" id="stop2"/>
	<stop offset="1" style="stop-color:#FFA06A" id="stop4"/>
</radialGradient>
<circle fill="url(#SVGID_1_)" cx="1500" cy="1500" r="1070.111" id="circle7"/><svg:switch style="font-style:normal;font-variant:normal;font-weight:normal;font-stretch:normal;font-size:48px;line-height:125%;font-family:Waree;-inkscape-font-specification:Waree;text-align:center;letter-spacing:0px;word-spacing:0px;text-anchor:middle;fill:#000000;fill-opacity:1;stroke:#000000;stroke-width:1px;stroke-linecap:butt;stroke-linejoin:miter;stroke-opacity:1"><svg:text xml:space="preserve" style="font-style:normal;font-variant:normal;font-weight:normal;font-stretch:normal;font-size:48px;line-height:125%;font-family:Waree;-inkscape-font-specification:Waree;text-align:center;letter-spacing:0px;word-spacing:0px;text-anchor:middle;fill:#000000;fill-opacity:1;stroke:#000000;stroke-width:1px;stroke-linecap:butt;stroke-linejoin:miter;stroke-opacity:1" x="-1866.3834" y="686.95978" id="text1300-4-0-2-5-fr" transform="rotate(-89.896553)" systemLanguage="fr"><svg:tspan x="-1866.3834" y="686.95978" style="font-style:oblique;font-variant:normal;font-weight:normal;font-stretch:normal;font-size:48px;font-family:Waree;-inkscape-font-specification:'Waree Oblique';text-align:center;text-anchor:middle;fill:#000000;fill-opacity:1" id="tspan1384-2-5-2-fr">Enroulement d'effet Coriolis</svg:tspan></svg:text><svg:text xml:space="preserve" style="font-style:normal;font-variant:normal;font-weight:normal;font-stretch:normal;font-size:48px;line-height:125%;font-family:Waree;-inkscape-font-specification:Waree;text-align:center;letter-spacing:0px;word-spacing:0px;text-anchor:middle;fill:#000000;fill-opacity:1;stroke:#000000;stroke-width:1px;stroke-linecap:butt;stroke-linejoin:miter;stroke-opacity:1" x="-1866.3834" y="686.95978" id="text1300-4-0-2-5" transform="rotate(-89.896553)"><svg:tspan x="-1866.3834" y="686.95978" style="font-style:oblique;font-variant:normal;font-weight:normal;font-stretch:normal;font-size:48px;font-family:Waree;-inkscape-font-specification:'Waree Oblique';text-align:center;text-anchor:middle;fill:#000000;fill-opacity:1" id="tspan1384-2-5-2">Coriolis effect rolls</svg:tspan></svg:text></svg:switch>
<path fill="#FFF200" d="M903.008,1632.418c102.314,1.498,220.629,31.74,277.229,95.056l0.054-46.944  c-64.166-67.58-177.968-95.336-276.156-95.879" id="path9"/>
<path fill="#FFF200" d="M721.413,1872.839c11.082-92.731,349.517-93.581,458.622,28.473l0.056-46.94  c-128.335-135.161-455.214-111.024-458.622-28.474L721.413,1872.839" id="path11"/>
<path fill="#FFF200" d="M721.211,2046.68c11.081-92.729,349.516-93.578,458.622,28.472l0.055-46.936  c-128.333-135.161-455.214-111.022-458.623-28.474L721.211,2046.68" id="path13"/>
<path fill="#FFF200" d="M901.673,783.396c102.619,1.253,221.718,31.482,278.563,95.074l0.054-46.945  c-64.704-68.146-179.881-95.798-278.625-95.886" id="path15"/>
<path fill="#FFF200" d="M721.211,1197.675c11.081-92.729,349.516-93.578,458.622,28.471l0.055-46.936  c-128.333-135.162-455.214-111.022-458.623-28.473L721.211,1197.675" id="path17"/>
<path fill="#FFF200" d="M721.413,1023.835c11.082-92.732,349.517-93.583,458.622,28.471l0.056-46.938  c-128.335-135.162-455.214-111.024-458.622-28.475L721.413,1023.835" id="path19"/>
<g id="g27">
	<path fill="#FFF200" d="M1794.529,1023.835c11.082-92.732,349.518-93.583,458.622,28.471l0.056-46.938   c-128.335-135.162-455.215-111.024-458.622-28.475L1794.529,1023.835" id="path21"/>
	<path fill="#FFF200" d="M1977.01,783.427c102.111,1.659,219.907,31.909,276.344,95.042l0.055-46.945   c-64.438-67.866-178.936-95.57-277.406-95.883" id="path23"/>
	<path fill="#FFF200" d="M1794.328,1197.675c11.08-92.729,349.516-93.578,458.622,28.471l0.055-46.936   c-128.333-135.162-455.214-111.022-458.622-28.473L1794.328,1197.675" id="path25"/>
</g>
<path fill="none" d="M1794.901,703.705c0.046-39.639,49.759-77.606,135.325-96c119.838-25.767,264.622-3.383,323.383,49.99  l-0.861,742.309c-58.761-53.373-203.545-75.755-323.384-49.993c-85.566,18.396-135.278,56.364-135.324,96.003  C1794.326,1198.571,1794.616,951.148,1794.901,703.705z" id="path29"/>
<g enable-background="new    " id="g45">
	<defs id="defs32">
		<path id="SVGID_2_" enable-background="new    " d="M2277.484,1447.291c0.018-15.878-7.932-32.024-24.736-47.287l0.861-742.309    c16.807,15.262,24.754,31.409,24.737,47.286C2278.087,927.673,2277.742,1224.598,2277.484,1447.291z"/>
	</defs>
	<clipPath id="SVGID_3_">
		<use xlink:href="#SVGID_2_" overflow="visible" id="use34"/>
	</clipPath>
	<g clip-path="url(#SVGID_3_)" id="g43">
		<path fill="#FFF200" d="M2253.354,878.483c14.455,18.515,23.332,31.772,24.723,59.714l0.054-46.945    c-1.532-22.319-5.305-35.549-24.722-59.715L2253.354,878.483" id="path37"/>
		<path fill="#FFF200" d="M2253.151,1052.324c14.456,18.515,23.333,31.771,24.722,59.715l0.055-46.937    c-1.531-22.32-5.305-35.549-24.721-59.717L2253.151,1052.324" id="path39"/>
		<path fill="#FFF200" d="M2252.95,1226.172c14.456,18.515,23.333,31.772,24.721,59.716l0.056-46.945    c-1.531-22.319-5.307-35.551-24.722-59.717L2252.95,1226.172" id="path41"/>
	</g>
</g>
<path fill="none" d="M1794.04,1446.014c0.286-247.443,0.576-494.866,0.861-742.31c-0.018,15.878,7.933,32.022,24.736,47.287  c58.763,53.374,203.546,75.754,323.385,49.992c85.563-18.397,135.278-56.364,135.324-96.002l-0.862,742.31  c-0.046,39.641-49.76,77.605-135.326,96c-119.837,25.765-264.621,3.385-323.384-49.989  C1801.971,1478.035,1794.02,1461.892,1794.04,1446.014z" id="path47"/>
<path fill="#FFF200" d="M1794.529,1872.839c11.082-92.731,349.518-93.581,458.622,28.473l0.056-46.94  c-128.335-135.161-455.215-111.024-458.622-28.474L1794.529,1872.839" id="path49"/>
<path fill="#FFF200" d="M1977.656,1632.442c101.961,1.776,219.38,32.031,275.697,95.031l0.055-46.944  c-64.073-67.482-177.642-95.256-275.732-95.877" id="path51"/>
<path fill="#FFF200" d="M1794.328,2046.68c11.08-92.729,349.516-93.578,458.622,28.472l0.055-46.936  c-128.333-135.161-455.214-111.022-458.622-28.474L1794.328,2046.68" id="path53"/>
<path fill="none" d="M1794.901,1552.709c0.046-39.64,49.759-77.605,135.325-95.999c119.838-25.767,264.622-3.383,323.383,49.99  l-0.861,742.31c-58.761-53.375-203.545-75.757-323.384-49.994c-85.566,18.397-135.278,56.364-135.324,96.004  C1794.326,2047.575,1794.616,1800.153,1794.901,1552.709z" id="path55"/>
<g id="g63">
	<path fill="#FFF200" d="M2253.354,1727.487c14.455,18.516,23.332,31.772,24.723,59.716l0.054-46.945   c-1.532-22.32-5.305-35.55-24.722-59.716L2253.354,1727.487" id="path57"/>
	<path fill="#FFF200" d="M2253.151,1901.328c14.456,18.516,23.333,31.772,24.722,59.716l0.055-46.936   c-1.531-22.321-5.305-35.551-24.721-59.718L2253.151,1901.328" id="path59"/>
	<path fill="#FFF200" d="M2252.95,2075.177c14.456,18.516,23.333,31.773,24.721,59.718l0.056-46.945   c-1.531-22.319-5.307-35.551-24.722-59.718L2252.95,2075.177" id="path61"/>
</g>
<path fill="none" d="M2277.484,2296.296c0.018-15.879-7.932-32.025-24.736-47.286l0.861-742.31  c16.807,15.263,24.754,31.407,24.737,47.286C2278.087,1776.678,2277.742,2073.603,2277.484,2296.296z" id="path65"/>
<path fill="none" d="M1794.04,2295.02c0.286-247.444,0.576-494.866,0.861-742.311c-0.018,15.879,7.933,32.024,24.736,47.287  c58.763,53.374,203.546,75.754,323.385,49.992c85.563-18.397,135.278-56.364,135.324-96.002l-0.862,742.31  c-0.046,39.642-49.76,77.604-135.326,96c-119.837,25.764-264.621,3.384-323.384-49.99  C1801.971,2327.041,1794.02,2310.897,1794.04,2295.02z" id="path67"/>
<path fill="#FFF200" d="M1258.621,1023.835c11.082-92.732,349.518-93.583,458.622,28.471l0.056-46.938  c-128.335-135.162-455.215-111.024-458.622-28.475L1258.621,1023.835" id="path69"/>
<path fill="#FFF200" d="M1440.009,783.41c102.362,1.46,220.798,31.7,277.437,95.059l0.055-46.945  c-64.604-68.041-179.525-95.712-278.166-95.885" id="path71"/>
<path fill="#FFF200" d="M1258.42,1197.675c11.08-92.729,349.516-93.578,458.622,28.471l0.055-46.936  c-128.333-135.162-455.214-111.022-458.622-28.473L1258.42,1197.675" id="path73"/>
<path fill="#FFF200" d="M1258.218,1371.525c11.081-92.729,349.517-93.579,458.622,28.477l0.054-46.948  c-128.33-135.161-455.212-111.022-458.622-28.474L1258.218,1371.525" id="path75"/>
<path fill="none" d="M1258.993,703.705c0.046-39.639,49.759-77.606,135.325-96c119.838-25.767,264.622-3.383,323.383,49.99  l-0.861,742.309c-58.761-53.373-203.545-75.755-323.384-49.993c-85.566,18.396-135.278,56.364-135.324,96.003  C1258.418,1198.571,1258.708,951.148,1258.993,703.705z" id="path77"/>
<g id="g85">
	<path fill="#FFF200" d="M1717.445,878.483c14.455,18.515,23.332,31.772,24.723,59.714l0.054-46.945   c-1.532-22.319-5.305-35.549-24.722-59.715L1717.445,878.483" id="path79"/>
	<path fill="#FFF200" d="M1717.243,1052.324c14.456,18.515,23.333,31.771,24.722,59.715l0.055-46.937   c-1.531-22.32-5.305-35.549-24.721-59.717L1717.243,1052.324" id="path81"/>
	<path fill="#FFF200" d="M1717.042,1226.172c14.456,18.515,23.333,31.772,24.721,59.716l0.056-46.945   c-1.531-22.319-5.307-35.551-24.722-59.717L1717.042,1226.172" id="path83"/>
</g>
<path fill="none" d="M1741.576,1447.291c0.018-15.878-7.932-32.024-24.736-47.287l0.861-742.309  c16.807,15.262,24.754,31.409,24.737,47.286C1742.179,927.673,1741.834,1224.598,1741.576,1447.291z" id="path87"/>
<path fill="#F7941E" d="M1741.763,1285.889c-12.059,171.349-432.923,195.921-480.401,98.397c-0.928-1.904-3.1-6.363-3.144-12.76  l0.054-46.945c13.818,117.324,423.768,70.999,476.789-53.88c4.109-9.677,6.699-21.846,6.758-31.757L1741.763,1285.889" id="path89"/>
<path fill="none" d="M1258.132,1446.014c0.286-247.443,0.576-494.866,0.861-742.31c-0.018,15.878,7.933,32.022,24.736,47.287  c58.763,53.374,203.546,75.754,323.385,49.992c85.563-18.397,135.278-56.364,135.324-96.002l-0.862,742.31  c-0.046,39.641-49.76,77.605-135.326,96c-119.837,25.765-264.621,3.385-323.384-49.989  C1266.062,1478.035,1258.111,1461.892,1258.132,1446.014z" id="path91"/>
<g id="g99">
	<path fill="#FFF200" d="M1258.621,1872.839c11.082-92.731,349.518-93.581,458.622,28.473l0.056-46.94   c-128.335-135.161-455.215-111.024-458.622-28.474L1258.621,1872.839" id="path93"/>
	<path fill="#FFF200" d="M1258.824,1699.001c11.082-92.73,349.516-93.58,458.621,28.473l0.055-46.944   c-128.332-135.16-455.213-111.023-458.622-28.476L1258.824,1699.001" id="path95"/>
	<path fill="#FFF200" d="M1258.42,2046.68c11.08-92.729,349.516-93.578,458.622,28.472l0.055-46.936   c-128.333-135.161-455.214-111.022-458.622-28.474L1258.42,2046.68" id="path97"/>
</g>
<path fill="none" d="M1258.993,1552.709c0.046-39.64,49.759-77.605,135.325-95.999c119.838-25.767,264.622-3.383,323.383,49.99  l-0.861,742.31c-58.761-53.375-203.545-75.757-323.384-49.994c-85.566,18.397-135.278,56.364-135.324,96.004  C1258.418,2047.575,1258.708,1800.153,1258.993,1552.709z" id="path101"/>
<g id="g111">
	<path fill="#FFF200" d="M1717.445,1727.487c14.455,18.516,23.332,31.772,24.723,59.716l0.054-46.945   c-1.532-22.32-5.305-35.55-24.722-59.716L1717.445,1727.487" id="path103"/>
	<path fill="#FFF200" d="M1717.646,1553.646c14.457,18.516,23.334,31.772,24.723,59.714l0.055-46.945   c-1.531-22.316-5.306-35.546-24.723-59.713L1717.646,1553.646" id="path105"/>
	<path fill="#FFF200" d="M1717.243,1901.328c14.456,18.516,23.333,31.772,24.722,59.716l0.055-46.936   c-1.531-22.321-5.305-35.551-24.721-59.718L1717.243,1901.328" id="path107"/>
	<path fill="#FFF200" d="M1717.042,2075.177c14.456,18.516,23.333,31.773,24.721,59.718l0.056-46.945   c-1.531-22.319-5.307-35.551-24.722-59.718L1717.042,2075.177" id="path109"/>
</g>
<path fill="none" d="M1741.576,2296.296c0.018-15.879-7.932-32.025-24.736-47.286l0.861-742.31  c16.807,15.263,24.754,31.407,24.737,47.286C1742.179,1776.678,1741.834,2073.603,1741.576,2296.296z" id="path113"/>
<path fill="#F7941E" d="M1742.369,1613.36c-12.059,171.349-432.924,195.924-480.402,98.401c-0.928-1.905-3.099-6.366-3.143-12.761  l0.054-46.947c13.817,117.326,423.767,71,476.789-53.88c4.109-9.678,6.697-21.846,6.757-31.759L1742.369,1613.36" id="path115"/>
<path fill="none" d="M1258.132,2295.02c0.286-247.444,0.576-494.866,0.861-742.311c-0.018,15.879,7.933,32.024,24.736,47.287  c58.763,53.374,203.546,75.754,323.385,49.992c85.563-18.397,135.278-56.364,135.324-96.002l-0.862,742.31  c-0.046,39.642-49.76,77.604-135.326,96c-119.837,25.764-264.621,3.384-323.384-49.99  C1266.062,2327.041,1258.111,2310.897,1258.132,2295.02z" id="path117"/>
<polygon fill="#FFF200" points="1917.557,1607.33 1992.542,1564.003 1992.572,1650.605 " id="polygon119"/>
<path fill="none" stroke="#231F20" stroke-width="6" stroke-miterlimit="10" d="M1210.589-129.881  c58.912,336.468,99.903,679.102,121.955,1026.88c0,0,0.923,86.109,82.054,114.115s277.486,141.685,197.99,331.829  s-356.983,370.137-251.988,472.131s91.496,155.991,50.998,197.989s-76.355,56.157-81.832,132.243  c-24.462,339.883-64.275,674.989-122.613,1004.074" id="path121"/>
<path fill="none" stroke="#231F20" stroke-width="6" stroke-miterlimit="10" d="M1500.286,3149.381v-938.326  c0,0,1.306-50.997,46.304-62.997s83.995-86.996,38.998-125.994s-177.344-146.178-97.671-263.579s288.163-168.398,205.667-282.393  s-385.48-218.989-341.983-295.485s135.379-202.485,148.686-488.974v-821.514" id="path123"/>
<svg:switch style="font-style:normal;font-variant:normal;font-weight:bold;font-stretch:normal;font-size:96px;line-height:125%;font-family:'Bitstream Vera Sans';-inkscape-font-specification:'Bitstream Vera Sans Bold';text-align:center;letter-spacing:0px;word-spacing:0px;text-anchor:middle;fill:#000000;fill-opacity:1;stroke:#000000;stroke-width:1px;stroke-linecap:butt;stroke-linejoin:miter;stroke-opacity:1"><svg:text xml:space="preserve" style="font-style:normal;font-variant:normal;font-weight:bold;font-stretch:normal;font-size:96px;line-height:125%;font-family:'Bitstream Vera Sans';-inkscape-font-specification:'Bitstream Vera Sans Bold';text-align:center;letter-spacing:0px;word-spacing:0px;text-anchor:middle;fill:#000000;fill-opacity:1;stroke:#000000;stroke-width:1px;stroke-linecap:butt;stroke-linejoin:miter;stroke-opacity:1" x="2375.4143" y="1494.8865" id="text1300-4-9-fr" systemLanguage="fr"><svg:tspan id="tspan1298-8-6-fr" x="2375.4143" y="1494.8865" style="font-style:normal;font-variant:normal;font-weight:bold;font-stretch:normal;font-family:Waree;-inkscape-font-specification:'Waree Bold';text-align:center;text-anchor:middle;fill:#000000;fill-opacity:1">NOYAU</svg:tspan><svg:tspan x="2375.4143" y="1618.7302" style="font-style:normal;font-variant:normal;font-weight:bold;font-stretch:normal;font-family:Waree;-inkscape-font-specification:'Waree Bold';text-align:center;text-anchor:middle;fill:#000000;fill-opacity:1" id="tspan1384-1-fr">EXTERNE</svg:tspan></svg:text><svg:text xml:space="preserve" style="font-style:normal;font-variant:normal;font-weight:bold;font-stretch:normal;font-size:96px;line-height:125%;font-family:'Bitstream Vera Sans';-inkscape-font-specification:'Bitstream Vera Sans Bold';text-align:center;letter-spacing:0px;word-spacing:0px;text-anchor:middle;fill:#000000;fill-opacity:1;stroke:#000000;stroke-width:1px;stroke-linecap:butt;stroke-linejoin:miter;stroke-opacity:1" x="2375.4143" y="1494.8865" id="text1300-4-9"><svg:tspan id="tspan1298-8-6" x="2375.4143" y="1494.8865" style="font-style:normal;font-variant:normal;font-weight:bold;font-stretch:normal;font-family:Waree;-inkscape-font-specification:'Waree Bold';text-align:center;text-anchor:middle;fill:#000000;fill-opacity:1">OUTER</svg:tspan><svg:tspan x="2375.4143" y="1618.7302" style="font-style:normal;font-variant:normal;font-weight:bold;font-stretch:normal;font-family:Waree;-inkscape-font-specification:'Waree Bold';text-align:center;text-anchor:middle;fill:#000000;fill-opacity:1" id="tspan1384-1">CORE</svg:tspan></svg:text></svg:switch><path fill="none" stroke="#231F20" stroke-width="6" stroke-miterlimit="10" d="M3135.463,446.016  c-377.33,0-708.47,197.764-895.424,495.294c0,0-63.482,84.804-31.984,150.801s9.554,331.225-130.493,428.979  s-178.148,218.873-137.873,338.982s155.871,88.164,197.869,79.33s59.369,29.472,59.369,64.338c0,71.411,19.995,8.67,95.058,135.74  c162.693,275.417,498.941,420.045,843.479,420.045" id="path125"/>
<path fill="none" stroke="#231F20" stroke-width="6" stroke-miterlimit="10" d="M2565.685,3134.779  c-202.988-278.307-355.401-595.855-443.724-939.131c0,0-20.401-62.591-41.4-179.585s13.499-236.987,52.497-269.986  s28.5-210.627-122.993-243.307s-92-151.173-55-167.673s80.498-55.497,101.497-170.991s1.624-133.37,60.995-336.857  C2219,479.564,2360.521,151.15,2568.179-132.652" id="path127"/>
<path fill="none" stroke="#231F20" stroke-width="6" stroke-miterlimit="10" d="M2145.213-126.924  c-107.494,301.304-186.025,616.362-232.242,941.821c0,0-27.905,161.719,42.094,173.718s140.495,56.997,140.495,175.491  s12.001,235.488,77.997,319.484s-17.09,235.488-133.039,215.989s-165.446,58.497-166.946,137.993s19.888,212.999,32.484,302.459  c48.373,343.537,126.359,676.598,239.698,993.951" id="path129"/>
<polygon fill="#FFF200" points="831.557,1606.33 906.542,1563.003 906.572,1649.605 " id="polygon131"/>
<path fill="none" stroke="#231F20" stroke-width="6" stroke-miterlimit="10" d="M1790.601,3152.152  c-60.479-341.162-102.528-688.692-125.082-1041.525c0,0,6.712-78.065-177.602-82.565c-184.314-4.5-95.691-143.993-68.756-184.491  s127.43-100.2,191.927-116.097s175.491-124.065,43.498-217.724c-131.993-93.658-235.103-162.654-154.299-330.646  s115.301-86.995,149.799-109.494s55.496-94.495,32.998-127.494s-19.301-23.261-16.062-70.264  c23.304-338.142,62.808-671.501,120.143-998.962" id="path133"/>
<path fill="none" stroke="#231F20" stroke-width="6" stroke-miterlimit="10" d="M-137.71,443.245  c363.478,0,684.094,183.509,874.256,462.932c0,0,35.484,85.441,170.026,85.441s268.035,32.998,202.039,103.495  s-158.992,175.491-103.495,206.99s121.494,124.494,67.497,167.992s-332.12,35.998-241.056,200.99s131.562,178.491,185.559,179.991  s112.494,67.159,94.495,88.327s-55.498,94.664-119.994,73.665s-157.412-72.173-213.949,15.311  c-198.064,306.475-524.23,528.377-915.378,528.377" id="path135"/>
<path fill="none" stroke="#231F20" stroke-width="6" stroke-miterlimit="10" d="M852.541-129.695  c109.77,307.686,189.338,629.714,235.135,962.517c0,0,49.434,337.29-145.556,337.29s-205.49,203.989-163.492,257.987  s354.704,238.488,309.345,310.484s-126.119,176.99-117.987,289.485s60.63,84.123,84.628,82.56s40.11,6.909,33.358,54.392  c-47.478,333.884-125.686,657.383-235.974,966.193" id="path137"/>
<path fill="none" stroke="#231F20" stroke-width="6" stroke-miterlimit="10" d="M432.068,3132.008  c212.271-291.033,369.234-624.979,455.436-986.381c0,0,81.614-260.054,9.618-290.052s-73.497-161.991,38.998-164.991  s170.991-122.993,170.991-169.491s-137.993-175.491-226.489-188.991s-149.993-86.996-86.996-157.492s126.849-150.544,97.173-306.26  C820.025,496.983,645.85,160.156,429.574-135.423" id="path139"/>
<path fill="none" d="M721.784,703.705c0.046-39.639,49.759-77.606,135.325-96c119.839-25.767,264.623-3.383,323.383,49.99  l-0.861,742.309c-58.761-53.373-203.545-75.755-323.384-49.993c-85.566,18.396-135.279,56.364-135.324,96.003  C721.208,1198.571,721.499,951.148,721.784,703.705z" id="path141"/>
<g enable-background="new    " id="g157">
	<defs id="defs144">
		<path id="SVGID_4_" enable-background="new    " d="M1204.367,1447.291c0.019-15.878-7.931-32.024-24.736-47.287l0.861-742.309    c16.806,15.262,24.754,31.409,24.737,47.286C1204.97,927.673,1204.625,1224.598,1204.367,1447.291z"/>
	</defs>
	<clipPath id="SVGID_5_">
		<use xlink:href="#SVGID_4_" overflow="visible" id="use146"/>
	</clipPath>
	<g clip-path="url(#SVGID_5_)" id="g155">
		<path fill="#FFF200" d="M1180.034,1052.324c14.456,18.515,23.333,31.771,24.722,59.715l0.054-46.937    c-1.531-22.32-5.305-35.549-24.72-59.717L1180.034,1052.324" id="path149"/>
		<path fill="#FFF200" d="M1179.833,1226.172c14.457,18.515,23.333,31.772,24.721,59.716l0.056-46.945    c-1.531-22.319-5.306-35.551-24.722-59.717L1179.833,1226.172" id="path151"/>
		<path fill="#FFF200" d="M1180.236,878.483c14.455,18.515,23.333,31.772,24.722,59.714l0.054-46.945    c-1.532-22.319-5.305-35.549-24.722-59.715L1180.236,878.483" id="path153"/>
	</g>
</g>
<g enable-background="new    " id="g173">
	<defs id="defs160">
		<path id="SVGID_6_" enable-background="new    " d="M720.923,1446.014c0.286-247.443,0.576-494.866,0.861-742.31    c-0.018,15.878,7.932,32.022,24.736,47.287c58.762,53.374,203.546,75.754,323.385,49.992    c85.564-18.397,135.279-56.364,135.324-96.002l-0.863,742.31c-0.045,39.641-49.759,77.605-135.325,96    c-119.837,25.765-264.622,3.385-323.384-49.989C728.853,1478.035,720.903,1461.892,720.923,1446.014z"/>
	</defs>
	<clipPath id="SVGID_7_">
		<use xlink:href="#SVGID_6_" overflow="visible" id="use162"/>
	</clipPath>
	<g clip-path="url(#SVGID_7_)" id="g171">
		<path fill="#F7941E" d="M1204.958,938.198c-12.059,171.349-432.924,195.923-480.403,98.397c-0.927-1.904-3.099-6.363-3.143-12.76    l0.055-46.942c13.816,117.327,423.766,70.998,476.788-53.882c4.108-9.676,6.697-21.847,6.757-31.758L1204.958,938.198" id="path165"/>
		<path fill="#F7941E" d="M1204.756,1112.039c-12.059,171.356-432.923,195.924-480.403,98.396c-0.927-1.904-3.097-6.363-3.142-12.76    l0.054-46.938c13.817,117.327,423.766,71,476.788-53.88c4.109-9.678,6.699-21.847,6.757-31.755L1204.756,1112.039" id="path167"/>
		<path fill="#F7941E" d="M1204.554,1285.889c-7.896,112.207-191.099,161.473-329.956,154.728c0-48.378,0.014,0.252-0.098-25.117    c-0.102-23.262,0.111,25.369,0.111-23.262c126.863,1.265,291.007-45.621,323.241-121.538c4.109-9.677,6.698-21.846,6.757-31.757    L1204.554,1285.889" id="path169"/>
	</g>
</g><svg:switch style="font-style:normal;font-variant:normal;font-weight:normal;font-stretch:normal;font-size:48px;line-height:125%;font-family:Waree;-inkscape-font-specification:Waree;text-align:center;letter-spacing:0px;word-spacing:0px;text-anchor:middle;fill:#000000;fill-opacity:1;stroke:#000000;stroke-width:1px;stroke-linecap:butt;stroke-linejoin:miter;stroke-opacity:1"><svg:text xml:space="preserve" style="font-style:normal;font-variant:normal;font-weight:normal;font-stretch:normal;font-size:48px;line-height:125%;font-family:Waree;-inkscape-font-specification:Waree;text-align:center;letter-spacing:0px;word-spacing:0px;text-anchor:middle;fill:#000000;fill-opacity:1;stroke:#000000;stroke-width:1px;stroke-linecap:butt;stroke-linejoin:miter;stroke-opacity:1" x="569.04474" y="1040.0035" id="text1300-4-0-fr" systemLanguage="fr"><svg:tspan id="tspan1298-8-4-fr" x="569.04474" y="1040.0035" style="font-style:normal;font-variant:normal;font-weight:normal;font-stretch:normal;font-size:48px;font-family:Waree;-inkscape-font-specification:Waree;text-align:center;text-anchor:middle;fill:#000000;fill-opacity:1">COURANTS DE</svg:tspan><svg:tspan x="569.04474" y="1100.0035" style="font-style:normal;font-variant:normal;font-weight:normal;font-stretch:normal;font-size:48px;font-family:Waree;-inkscape-font-specification:Waree;text-align:center;text-anchor:middle;fill:#000000;fill-opacity:1" id="tspan1470-fr">CONVECTION</svg:tspan><svg:tspan x="569.04474" y="1160.0035" style="font-style:normal;font-variant:normal;font-weight:normal;font-stretch:normal;font-size:48px;font-family:Waree;-inkscape-font-specification:Waree;text-align:center;text-anchor:middle;fill:#000000;fill-opacity:1" id="tspan1384-2-fr">DES FLUIDES</svg:tspan></svg:text><svg:text xml:space="preserve" style="font-style:normal;font-variant:normal;font-weight:normal;font-stretch:normal;font-size:48px;line-height:125%;font-family:Waree;-inkscape-font-specification:Waree;text-align:center;letter-spacing:0px;word-spacing:0px;text-anchor:middle;fill:#000000;fill-opacity:1;stroke:#000000;stroke-width:1px;stroke-linecap:butt;stroke-linejoin:miter;stroke-opacity:1" x="569.04474" y="1040.0035" id="text1300-4-0"><svg:tspan id="tspan1298-8-4" x="569.04474" y="1040.0035" style="font-style:normal;font-variant:normal;font-weight:normal;font-stretch:normal;font-size:48px;font-family:Waree;-inkscape-font-specification:Waree;text-align:center;text-anchor:middle;fill:#000000;fill-opacity:1">FLUID</svg:tspan><svg:tspan x="569.04474" y="1100.0035" style="font-style:normal;font-variant:normal;font-weight:normal;font-stretch:normal;font-size:48px;font-family:Waree;-inkscape-font-specification:Waree;text-align:center;text-anchor:middle;fill:#000000;fill-opacity:1" id="tspan1470">CONVECTION</svg:tspan><svg:tspan x="569.04474" y="1160.0035" style="font-style:normal;font-variant:normal;font-weight:normal;font-stretch:normal;font-size:48px;font-family:Waree;-inkscape-font-specification:Waree;text-align:center;text-anchor:middle;fill:#000000;fill-opacity:1" id="tspan1384-2">CURRENTS</svg:tspan></svg:text></svg:switch>
<path fill="none" d="M721.784,1552.709c0.046-39.64,49.759-77.605,135.325-95.999c119.839-25.767,264.623-3.383,323.383,49.99  l-0.861,742.31c-58.761-53.375-203.545-75.757-323.384-49.994c-85.566,18.397-135.279,56.364-135.324,96.004  C721.208,2047.575,721.499,1800.153,721.784,1552.709z" id="path175"/>
<g enable-background="new    " id="g191">
	<defs id="defs178">
		<path id="SVGID_8_" enable-background="new    " d="M1204.367,2296.296c0.019-15.879-7.931-32.025-24.736-47.286l0.861-742.31    c16.806,15.263,24.754,31.407,24.737,47.286C1204.97,1776.678,1204.625,2073.603,1204.367,2296.296z"/>
	</defs>
	<clipPath id="SVGID_9_">
		<use xlink:href="#SVGID_8_" overflow="visible" id="use180"/>
	</clipPath>
	<g clip-path="url(#SVGID_9_)" id="g189">
		<path fill="#FFF200" d="M1180.236,1727.487c14.455,18.516,23.333,31.772,24.722,59.716l0.054-46.945    c-1.532-22.32-5.305-35.55-24.722-59.716L1180.236,1727.487" id="path183"/>
		<path fill="#FFF200" d="M1180.034,1901.328c14.456,18.516,23.333,31.772,24.722,59.716l0.054-46.936    c-1.531-22.321-5.305-35.551-24.72-59.718L1180.034,1901.328" id="path185"/>
		<path fill="#FFF200" d="M1179.833,2075.177c14.457,18.516,23.333,31.773,24.721,59.718l0.056-46.945    c-1.531-22.319-5.306-35.551-24.722-59.718L1179.833,2075.177" id="path187"/>
	</g>
</g>
<g enable-background="new    " id="g207">
	<defs id="defs194">
		<path id="SVGID_10_" enable-background="new    " d="M720.923,2295.02c0.286-247.444,0.576-494.866,0.861-742.311    c-0.018,15.879,7.932,32.024,24.736,47.287c58.762,53.374,203.546,75.754,323.385,49.992    c85.564-18.397,135.279-56.364,135.324-96.002l-0.863,742.31c-0.045,39.642-49.759,77.604-135.325,96    c-119.837,25.764-264.622,3.384-323.384-49.99C728.853,2327.041,720.903,2310.897,720.923,2295.02z"/>
	</defs>
	<clipPath id="SVGID_11_">
		<use xlink:href="#SVGID_10_" overflow="visible" id="use196"/>
	</clipPath>
	<g clip-path="url(#SVGID_11_)" id="g205">
		<path fill="#F7941E" d="M1204.958,1787.203c-12.059,171.349-432.924,195.924-480.403,98.397    c-0.927-1.906-3.099-6.364-3.143-12.762l0.055-46.941c13.816,117.326,423.766,70.997,476.788-53.883    c4.108-9.674,6.697-21.846,6.757-31.757L1204.958,1787.203" id="path199"/>
		<path fill="#F7941E" d="M1204.756,1961.044c-12.059,171.355-432.923,195.925-480.403,98.396    c-0.927-1.905-3.097-6.363-3.142-12.761l0.054-46.938c13.817,117.326,423.766,71,476.788-53.879    c4.109-9.679,6.699-21.849,6.757-31.755L1204.756,1961.044" id="path201"/>
		<path fill="#F7941E" d="M1204.554,2134.895c-7.405,105.221-168.965,155.094-303.557,155.335c0-27.229-0.463-19.729-0.463-49.374    c122.322-4.754,267.242-50.313,297.318-121.149c4.109-9.679,6.698-21.847,6.757-31.757L1204.554,2134.895" id="path203"/>
	</g>
</g>
<polygon fill="#F7941E" points="815.557,1415.33 890.542,1372.003 890.572,1458.605 " id="polygon209"/>
<path fill="#F7941E" d="M1742.168,938.198c-12.06,171.349-432.924,195.923-480.404,98.397c-0.927-1.904-3.098-6.363-3.143-12.76  l0.056-46.942c13.815,117.327,423.766,70.998,476.788-53.882c4.108-9.676,6.697-21.847,6.757-31.758L1742.168,938.198" id="path211"/>
<path fill="#F7941E" d="M1741.965,1112.039c-12.059,171.356-432.923,195.924-480.403,98.396c-0.927-1.904-3.097-6.363-3.142-12.76  l0.055-46.938c13.816,117.327,423.766,71,476.787-53.88c4.109-9.678,6.699-21.847,6.758-31.755L1741.965,1112.039" id="path213"/>
<path fill="#F7941E" d="M1742.168,1787.203c-12.06,171.349-432.924,195.924-480.404,98.397c-0.927-1.906-3.098-6.364-3.143-12.762  l0.056-46.941c13.815,117.326,423.766,70.997,476.788-53.883c4.108-9.674,6.697-21.846,6.757-31.757L1742.168,1787.203" id="path215"/>
<path fill="#F7941E" d="M1741.965,1961.044c-12.059,171.355-432.923,195.925-480.403,98.396c-0.927-1.905-3.097-6.363-3.142-12.761  l0.055-46.938c13.816,117.326,423.766,71,476.787-53.879c4.109-9.679,6.699-21.849,6.758-31.755L1741.965,1961.044" id="path217"/>
<path fill="#F7941E" d="M1741.763,2134.895c-7.427,105.535-169.933,155.391-304.763,155.335c0-19.229-0.003-24.229-0.003-49.345  c122.478-4.597,267.928-50.198,298.064-121.179c4.109-9.679,6.699-21.847,6.758-31.757L1741.763,2134.895" id="path219"/>
<path fill="#F7941E" d="M2278.076,938.198c-12.06,171.349-432.924,195.923-480.404,98.397c-0.927-1.904-3.098-6.363-3.143-12.76  l0.056-46.942c13.815,117.327,423.766,70.998,476.788-53.882c4.108-9.676,6.697-21.847,6.757-31.758L2278.076,938.198" id="path221"/>
<path fill="#F7941E" d="M2277.873,1112.039c-12.059,171.356-432.923,195.924-480.403,98.396c-0.927-1.904-3.097-6.363-3.142-12.76  l0.055-46.938c13.816,117.327,423.766,71,476.787-53.88c4.109-9.678,6.699-21.847,6.758-31.755L2277.873,1112.039" id="path223"/>
<path fill="#F7941E" d="M2278.291,1288.748c-7.896,112.207-191.099,161.473-329.956,154.729c0-48.379,0.014,0.252-0.098-25.117  c-0.103-23.262,0.111,25.369,0.111-23.262c126.862,1.265,291.007-45.621,323.24-121.538c4.109-9.677,6.699-21.846,6.758-31.757  L2278.291,1288.748" id="path225"/>
<polygon fill="#F7941E" points="1896.557,1420.327 1971.542,1377 1971.572,1463.603 " id="polygon227"/>
<path fill="#F7941E" d="M2278.076,1787.203c-12.06,171.349-432.924,195.924-480.404,98.397c-0.927-1.906-3.098-6.364-3.143-12.762  l0.056-46.941c13.815,117.326,423.766,70.997,476.788-53.883c4.108-9.674,6.697-21.846,6.757-31.757L2278.076,1787.203" id="path229"/>
<path fill="#F7941E" d="M2277.873,1961.044c-12.059,171.355-432.923,195.925-480.403,98.396c-0.927-1.905-3.097-6.363-3.142-12.761  l0.055-46.938c13.816,117.326,423.766,71,476.787-53.879c4.109-9.679,6.699-21.849,6.758-31.755L2277.873,1961.044" id="path231"/>
<path fill="#F7941E" d="M2277.671,2134.895c-7.425,105.511-169.858,155.368-304.671,155.335c0-27.229-0.523-20.229-0.523-49.328  c122.567-4.508,268.32-50.133,298.492-121.195c4.109-9.679,6.699-21.847,6.758-31.757L2277.671,2134.895" id="path233"/>
<radialGradient id="SVGID_12_" cx="1500.2856" cy="1499.9995" r="439.4028" gradientUnits="userSpaceOnUse">
	<stop offset="0.6512" style="stop-color:#BF1A00" id="stop235"/>
	<stop offset="0.9376" style="stop-color:#FF6B2A;stop-opacity:0.5" id="stop237"/>
	<stop offset="1" style="stop-color:#FF6B2A;stop-opacity:0" id="stop239"/>
</radialGradient>
<circle fill="url(#SVGID_12_)" cx="1500.286" cy="1500" r="439.403" id="circle242"/>
<polygon fill="#231F20" points="1543.301,142.833 1500,217.833 1456.699,142.833 " id="polygon244"/>
<polygon fill="#231F20" points="1783.323,170.033 1730.666,238.789 1697.451,158.809 " id="polygon246"/>
<polygon fill="#231F20" points="2070.809,262.363 2009.247,323.273 1987.279,239.503 " id="polygon248"/>
<polygon fill="#231F20" points="2313.776,403.767 2244.982,456.374 2233.821,370.494 " id="polygon250"/>
<polygon fill="#231F20" points="2566.354,663.612 2480.306,673.387 2514.866,593.979 " id="polygon252"/>
<polygon fill="#231F20" points="1214.748,170.033 1267.405,238.789 1300.62,158.809 " id="polygon254"/>
<polygon fill="#231F20" points="927.763,262.363 989.324,323.273 1011.292,239.503 " id="polygon256"/>
<polygon fill="#231F20" points="697.795,403.767 766.589,456.374 777.75,370.494 " id="polygon258"/>
<polygon fill="#231F20" points="434.217,663.612 520.266,673.387 485.705,593.979 " id="polygon260"/>
<polygon fill="#231F20" points="1456.699,2782.167 1500,2857.167 1543.301,2782.167 " id="polygon262"/>
<polygon fill="#231F20" points="1310.729,2766.455 1258.072,2835.211 1224.857,2755.23 " id="polygon264"/>
<polygon fill="#231F20" points="1032.219,2687.816 970.657,2748.727 948.689,2664.956 " id="polygon266"/>
<polygon fill="#231F20" points="800.878,2557.688 732.084,2610.294 720.923,2524.415 " id="polygon268"/>
<polygon fill="#231F20" points="541.32,2356.839 455.271,2366.613 489.832,2287.206 " id="polygon270"/>

<svg:switch style="font-style:normal;font-variant:normal;font-weight:bold;font-stretch:normal;font-size:96px;line-height:125%;font-family:'Bitstream Vera Sans';-inkscape-font-specification:'Bitstream Vera Sans Bold';text-align:center;letter-spacing:0px;word-spacing:0px;text-anchor:middle;fill:#000000;fill-opacity:1;stroke:#000000;stroke-width:1px;stroke-linecap:butt;stroke-linejoin:miter;stroke-opacity:1"><svg:text xml:space="preserve" style="font-style:normal;font-variant:normal;font-weight:bold;font-stretch:normal;font-size:96px;line-height:125%;font-family:'Bitstream Vera Sans';-inkscape-font-specification:'Bitstream Vera Sans Bold';text-align:center;letter-spacing:0px;word-spacing:0px;text-anchor:middle;fill:#000000;fill-opacity:1;stroke:#000000;stroke-width:1px;stroke-linecap:butt;stroke-linejoin:miter;stroke-opacity:1" x="1504.5212" y="1458.4268" id="text1300-4-fr" systemLanguage="fr"><svg:tspan id="tspan1298-8-fr" x="1504.5212" y="1458.4268" style="font-style:normal;font-variant:normal;font-weight:bold;font-stretch:normal;font-family:Waree;-inkscape-font-specification:'Waree Bold';text-align:center;text-anchor:middle;fill:#000000;fill-opacity:1">NOYAU</svg:tspan><svg:tspan x="1504.5212" y="1582.2705" style="font-style:normal;font-variant:normal;font-weight:bold;font-stretch:normal;font-family:Waree;-inkscape-font-specification:'Waree Bold';text-align:center;text-anchor:middle;fill:#000000;fill-opacity:1" id="tspan1384-fr">INTERNE</svg:tspan></svg:text><svg:text xml:space="preserve" style="font-style:normal;font-variant:normal;font-weight:bold;font-stretch:normal;font-size:96px;line-height:125%;font-family:'Bitstream Vera Sans';-inkscape-font-specification:'Bitstream Vera Sans Bold';text-align:center;letter-spacing:0px;word-spacing:0px;text-anchor:middle;fill:#000000;fill-opacity:1;stroke:#000000;stroke-width:1px;stroke-linecap:butt;stroke-linejoin:miter;stroke-opacity:1" x="1504.5212" y="1458.4268" id="text1300-4"><svg:tspan id="tspan1298-8" x="1504.5212" y="1458.4268" style="font-style:normal;font-variant:normal;font-weight:bold;font-stretch:normal;font-family:Waree;-inkscape-font-specification:'Waree Bold';text-align:center;text-anchor:middle;fill:#000000;fill-opacity:1">INNER</svg:tspan><svg:tspan x="1504.5212" y="1582.2705" style="font-style:normal;font-variant:normal;font-weight:bold;font-stretch:normal;font-family:Waree;-inkscape-font-specification:'Waree Bold';text-align:center;text-anchor:middle;fill:#000000;fill-opacity:1" id="tspan1384">CORE</svg:tspan></svg:text></svg:switch>




<polygon fill="#231F20" points="1689.842,2766.455 1742.5,2835.211 1775.715,2755.23 " id="polygon444"/>
<polygon fill="#231F20" points="1965.853,2687.816 2027.414,2748.727 2049.382,2664.956 " id="polygon446"/>
<polygon fill="#231F20" points="2196.927,2557.688 2265.721,2610.294 2276.882,2524.415 " id="polygon448"/>
<polygon fill="#231F20" points="2450.752,2380.339 2536.801,2390.113 2502.24,2310.706 " id="polygon450"/>
<g id="g452">
</g>
<g id="g454">
</g>
<g id="g456">
</g>
<g id="g458">
</g>
<g id="g460">
</g>
<g id="g462">
</g>
<g id="g464">
</g>
<g id="g466">
</g>
<svg:switch style="font-style:normal;font-variant:normal;font-weight:bold;font-stretch:normal;font-size:96px;line-height:125%;font-family:'Bitstream Vera Sans';-inkscape-font-specification:'Bitstream Vera Sans Bold';letter-spacing:0px;word-spacing:0px;fill:#000000;fill-opacity:1;stroke:#000000;stroke-width:1px;stroke-linecap:butt;stroke-linejoin:miter;stroke-opacity:1"><svg:text xml:space="preserve" style="font-style:normal;font-variant:normal;font-weight:bold;font-stretch:normal;font-size:96px;line-height:125%;font-family:'Bitstream Vera Sans';-inkscape-font-specification:'Bitstream Vera Sans Bold';letter-spacing:0px;word-spacing:0px;fill:#000000;fill-opacity:1;stroke:#000000;stroke-width:1px;stroke-linecap:butt;stroke-linejoin:miter;stroke-opacity:1" x="79.53318" y="260.48462" id="text1300-fr" systemLanguage="fr"><svg:tspan id="tspan1298-fr" x="79.53318" y="260.48462" style="font-style:normal;font-variant:normal;font-weight:bold;font-stretch:normal;font-family:Waree;-inkscape-font-specification:'Waree Bold';fill:#000000;fill-opacity:1">MANTEAU</svg:tspan></svg:text><svg:text xml:space="preserve" style="font-style:normal;font-variant:normal;font-weight:bold;font-stretch:normal;font-size:96px;line-height:125%;font-family:'Bitstream Vera Sans';-inkscape-font-specification:'Bitstream Vera Sans Bold';letter-spacing:0px;word-spacing:0px;fill:#000000;fill-opacity:1;stroke:#000000;stroke-width:1px;stroke-linecap:butt;stroke-linejoin:miter;stroke-opacity:1" x="79.53318" y="260.48462" id="text1300"><svg:tspan id="tspan1298" x="79.53318" y="260.48462" style="font-style:normal;font-variant:normal;font-weight:bold;font-stretch:normal;font-family:Waree;-inkscape-font-specification:'Waree Bold';fill:#000000;fill-opacity:1">MANTLE</svg:tspan></svg:text></svg:switch><svg:switch style="font-style:normal;font-variant:normal;font-weight:normal;font-stretch:normal;font-size:48px;line-height:125%;font-family:Waree;-inkscape-font-specification:Waree;text-align:center;letter-spacing:0px;word-spacing:0px;text-anchor:middle;fill:#000000;fill-opacity:1;stroke:#000000;stroke-width:1px;stroke-linecap:butt;stroke-linejoin:miter;stroke-opacity:1"><svg:text xml:space="preserve" style="font-style:normal;font-variant:normal;font-weight:normal;font-stretch:normal;font-size:48px;line-height:125%;font-family:Waree;-inkscape-font-specification:Waree;text-align:center;letter-spacing:0px;word-spacing:0px;text-anchor:middle;fill:#000000;fill-opacity:1;stroke:#000000;stroke-width:1px;stroke-linecap:butt;stroke-linejoin:miter;stroke-opacity:1" x="2209.8889" y="1512.4539" id="text1300-4-0-2-fr" transform="rotate(-22.712971)" systemLanguage="fr"><svg:tspan x="2209.8889" y="1512.4539" style="font-style:normal;font-variant:normal;font-weight:normal;font-stretch:normal;font-size:48px;font-family:Waree;-inkscape-font-specification:Waree;text-align:center;text-anchor:middle;fill:#000000;fill-opacity:1" id="tspan1384-2-5-fr">CHAMPS MAGNÉTIQUES</svg:tspan></svg:text><svg:text xml:space="preserve" style="font-style:normal;font-variant:normal;font-weight:normal;font-stretch:normal;font-size:48px;line-height:125%;font-family:Waree;-inkscape-font-specification:Waree;text-align:center;letter-spacing:0px;word-spacing:0px;text-anchor:middle;fill:#000000;fill-opacity:1;stroke:#000000;stroke-width:1px;stroke-linecap:butt;stroke-linejoin:miter;stroke-opacity:1" x="2209.8889" y="1512.4539" id="text1300-4-0-2" transform="rotate(-22.712971)"><svg:tspan x="2209.8889" y="1512.4539" style="font-style:normal;font-variant:normal;font-weight:normal;font-stretch:normal;font-size:48px;font-family:Waree;-inkscape-font-specification:Waree;text-align:center;text-anchor:middle;fill:#000000;fill-opacity:1" id="tspan1384-2-5">MAGNETIC FIELDS</svg:tspan></svg:text></svg:switch></svg>
